<svg width="101" height="29" viewBox="0 0 101 29" fill="none" xmlns="http://www.w3.org/2000/svg">
<path d="M11.16 25.45C9.88 26.21 8.5 26.59 7.02 26.59C5.54 26.59 4.41 26.35 3.63 25.87C2.85 25.41 2.46 24.82 2.46 24.1C2.46 23.4 2.74 22.83 3.3 22.39C3.88 21.97 4.74 21.76 5.88 21.76C7.44 21.76 8.84 22.34 10.08 23.5C10.32 22.76 10.52 21.94 10.68 21.04L10.86 19.93H9.6V19.27H10.98L13.26 6.25C13.36 5.51 13.5 4.91 13.68 4.45C9.54 4.77 6.34 5.65 4.08 7.09C1.84 8.51 0.72 10.38 0.72 12.7C0.72 13.74 1.08 14.62 1.8 15.34C2.3 15.82 2.96 16.19 3.78 16.45C4.6 16.69 5.27 16.83 5.79 16.87C6.33 16.89 6.62 16.88 6.66 16.84V17.47C4.3 17.47 2.55 16.91 1.41 15.79C0.57 15.01 0.15 13.98 0.15 12.7C0.15 10.16 1.34 8.13 3.72 6.61C6.1 5.07 9.5 4.15 13.92 3.85C14.86 1.75 16.61 0.699999 19.17 0.699999V1.48C18.67 1.54 18.32 1.74 18.12 2.08C17.94 2.42 17.78 2.97 17.64 3.73C19.3 3.75 20.72 3.96 21.9 4.36C23.1 4.74 24.01 5.25 24.63 5.89C25.81 7.11 26.4 8.54 26.4 10.18C26.4 11.44 26.16 12.59 25.68 13.63C25.22 14.65 24.63 15.49 23.91 16.15C23.19 16.81 22.31 17.38 21.27 17.86C19.55 18.68 17.48 19.26 15.06 19.6V19.66C14.64 22 13.52 23.81 11.7 25.09C12.52 25.83 13.42 26.41 14.4 26.83C15.38 27.25 16.64 27.46 18.18 27.46V28.12C16.52 28.12 15.15 27.88 14.07 27.4C13.01 26.94 12.04 26.29 11.16 25.45ZM25.62 10.18C25.62 8.42 24.95 7.01 23.61 5.95C22.29 4.89 20.28 4.34 17.58 4.3C16.84 9.74 16.05 14.61 15.21 18.91C22.15 17.91 25.62 15 25.62 10.18ZM9.84 24.16C9.2 23.56 8.59 23.1 8.01 22.78C7.43 22.48 6.72 22.33 5.88 22.33C5.06 22.33 4.4 22.48 3.9 22.78C3.42 23.1 3.18 23.53 3.18 24.07C3.18 24.63 3.5 25.09 4.14 25.45C4.78 25.83 5.55 26.02 6.45 26.02C7.35 26.02 8.06 25.89 8.58 25.63C9.12 25.37 9.54 24.88 9.84 24.16ZM27.7488 11.41C28.3488 10.69 29.0988 10.33 29.9988 10.33C30.9188 10.33 31.6288 10.56 32.1288 11.02C32.6288 11.48 32.8788 12.13 32.8788 12.97V13.15C33.7788 11.27 34.9488 10.33 36.3888 10.33C37.9288 10.33 38.6988 11.13 38.6988 12.73C38.6988 13.39 38.4788 14.09 38.0388 14.83C37.5988 15.57 37.1588 16.28 36.7188 16.96C36.2788 17.62 36.0588 18.21 36.0588 18.73H35.3388C35.3388 17.99 35.7688 16.99 36.6288 15.73C37.4888 14.47 37.9188 13.5 37.9188 12.82C37.9188 12.12 37.7788 11.65 37.4988 11.41C37.2388 11.15 36.8388 11.02 36.2988 11.02C35.7788 11.02 35.2588 11.25 34.7388 11.71C34.2388 12.17 33.8188 12.75 33.4788 13.45C32.9388 14.49 32.5788 15.34 32.3988 16V16.03L31.3188 22H27.7188L29.6988 10.93C29.0988 10.99 28.5988 11.27 28.1988 11.77L27.7488 11.41ZM44.0269 22.27C42.4869 22.27 41.3169 21.89 40.5169 21.13C39.7169 20.35 39.3169 19.38 39.3169 18.22C39.3169 17.04 39.4169 16.04 39.6169 15.22C39.8369 14.38 40.1869 13.58 40.6669 12.82C41.1469 12.04 41.8669 11.43 42.8269 10.99C43.8069 10.55 45.0169 10.33 46.4569 10.33C47.9169 10.33 49.0469 10.72 49.8469 11.5C50.6669 12.26 51.0769 13.31 51.0769 14.65C51.0769 16.93 50.4669 18.77 49.2469 20.17C48.0469 21.57 46.3069 22.27 44.0269 22.27ZM42.7069 19.18C42.7069 20.78 43.1669 21.58 44.0869 21.58C45.0269 21.58 45.8569 20.78 46.5769 19.18C47.3169 17.56 47.6869 15.64 47.6869 13.42C47.6869 11.74 47.2269 10.9 46.3069 10.9C45.4069 10.9 44.5769 11.67 43.8169 13.21C43.0769 14.73 42.7069 16.72 42.7069 19.18ZM59.7891 15.73C59.3691 15.31 59.1591 14.8 59.1591 14.2C59.1591 13.6 59.3691 13.09 59.7891 12.67C60.2091 12.23 60.7191 12.01 61.3191 12.01C61.4991 12.01 61.7291 12.05 62.0091 12.13C61.6291 11.43 60.9191 11.08 59.8791 11.08C58.8391 11.08 57.9191 11.74 57.1191 13.06C56.3191 14.38 55.9191 16.34 55.9191 18.94C55.9191 19.84 56.1191 20.51 56.5191 20.95C56.9391 21.37 57.4591 21.58 58.0791 21.58C58.6991 21.58 59.2591 21.46 59.7591 21.22C60.2791 20.98 60.6891 20.7 60.9891 20.38C61.2891 20.04 61.5491 19.69 61.7691 19.33C62.1691 18.67 62.3691 18.25 62.3691 18.07L62.9091 18.31C62.8491 18.63 62.6691 19.06 62.3691 19.6C62.0691 20.12 61.7391 20.55 61.3791 20.89C61.0191 21.23 60.4891 21.55 59.7891 21.85C59.0891 22.13 58.3091 22.27 57.4491 22.27C55.8291 22.27 54.5991 21.89 53.7591 21.13C52.9391 20.35 52.5291 19.29 52.5291 17.95C52.5291 15.57 53.1191 13.71 54.2991 12.37C55.4991 11.01 57.1191 10.33 59.1591 10.33C60.5391 10.33 61.5991 10.68 62.3391 11.38C63.0791 12.08 63.4491 13 63.4491 14.14C63.4491 14.86 63.2291 15.41 62.7891 15.79C62.3691 16.17 61.8691 16.36 61.2891 16.36C60.7091 16.36 60.2091 16.15 59.7891 15.73ZM75.3073 22.27C73.5473 22.27 72.5873 21.5 72.4273 19.96C71.5473 21.5 70.4373 22.27 69.0973 22.27C67.7573 22.27 66.6873 21.87 65.8873 21.07C65.1073 20.25 64.7173 19.11 64.7173 17.65C64.7173 15.37 65.2773 13.58 66.3973 12.28C67.5173 10.98 68.9673 10.33 70.7473 10.33C72.2073 10.33 73.1773 11.02 73.6573 12.4C73.7573 11.8 73.8673 11.2 73.9873 10.6C75.4673 10.6 76.5673 10.54 77.2873 10.42L77.6773 10.33L75.6073 21.67C76.2073 21.61 76.7073 21.33 77.1073 20.83L77.5573 21.19C76.9573 21.91 76.2073 22.27 75.3073 22.27ZM68.1073 19.18C68.1073 20.08 68.2173 20.71 68.4373 21.07C68.6773 21.41 69.0373 21.58 69.5173 21.58C69.9973 21.58 70.4873 21.32 70.9873 20.8C71.6473 20.12 72.1773 19.26 72.5773 18.22C72.6373 17.96 72.7473 17.34 72.9073 16.36C73.0873 15.36 73.2373 14.54 73.3573 13.9C73.2973 13.14 73.0873 12.48 72.7273 11.92C72.3673 11.36 71.9173 11.08 71.3773 11.08C70.3973 11.08 69.6073 11.96 69.0073 13.72C68.4073 15.46 68.1073 17.28 68.1073 19.18ZM82.0685 21.49C84.0485 21.49 85.0385 20.03 85.0385 17.11C85.0385 16.39 84.9285 15.54 84.7085 14.56C84.5085 13.58 84.3885 12.97 84.3485 12.73C83.1285 13.99 81.7585 14.75 80.2385 15.01V14.29C81.6785 13.97 83.0285 13.15 84.2885 11.83V11.71C84.2885 11.23 84.3585 10.76 84.4985 10.3C84.6385 9.84 84.7785 9.5 84.9185 9.28L85.1285 8.95H85.8485C85.8485 9.83 85.9885 10.64 86.2685 11.38C86.5485 12.1 86.8585 12.69 87.1985 13.15C87.5385 13.59 87.8485 14.18 88.1285 14.92C88.4085 15.64 88.5485 16.44 88.5485 17.32C88.5485 18.74 88.0085 19.92 86.9285 20.86C85.8685 21.8 84.5885 22.27 83.0885 22.27C81.5885 22.27 80.4485 21.93 79.6685 21.25C78.9085 20.57 78.5285 19.79 78.5285 18.91C78.5285 18.01 78.7485 17.37 79.1885 16.99C79.6285 16.59 80.1485 16.39 80.7485 16.39C81.3485 16.39 81.8385 16.59 82.2185 16.99C82.6185 17.37 82.8185 17.87 82.8185 18.49C82.8185 19.09 82.6285 19.6 82.2485 20.02C81.8685 20.44 81.3785 20.65 80.7785 20.65C80.5185 20.65 80.2485 20.61 79.9685 20.53C80.4085 21.17 81.1085 21.49 82.0685 21.49ZM96.7734 10.33C99.3134 10.33 100.583 11.34 100.583 13.36C100.583 14.62 99.9834 15.58 98.7834 16.24C97.6034 16.88 95.9134 17.21 93.7134 17.23C93.6734 17.95 93.6534 18.52 93.6534 18.94C93.6534 19.84 93.8534 20.51 94.2534 20.95C94.6734 21.37 95.1934 21.58 95.8134 21.58C96.4334 21.58 96.9934 21.46 97.4934 21.22C98.0134 20.98 98.4234 20.7 98.7234 20.38C99.0234 20.04 99.2834 19.69 99.5034 19.33C99.9034 18.67 100.103 18.25 100.103 18.07L100.643 18.31C100.583 18.63 100.403 19.06 100.103 19.6C99.8034 20.12 99.4734 20.55 99.1134 20.89C98.7534 21.23 98.2234 21.55 97.5234 21.85C96.8234 22.13 96.0434 22.27 95.1834 22.27C93.5634 22.27 92.3334 21.89 91.4934 21.13C90.6734 20.35 90.2634 19.29 90.2634 17.95C90.2634 15.57 90.8534 13.71 92.0334 12.37C93.2134 11.01 94.7934 10.33 96.7734 10.33ZM99.8334 13.36C99.8334 12.7 99.6334 12.16 99.2334 11.74C98.8534 11.3 98.2734 11.08 97.4934 11.08C96.7334 11.08 95.9834 11.54 95.2434 12.46C94.5234 13.38 94.0434 14.74 93.8034 16.54C97.8234 16.52 99.8334 15.46 99.8334 13.36Z" fill="black"/>
</svg>

